# xmcd CD database file
#
# Track frame offsets:
#	150
#	8227
#	24673
#	54646
#	62683
#	81071
#	93105
#	106641
#	124808
#	143658
#	160016
#	175621
#	186496
#	202041
#	214801
#	224298
#	243929
#	251821
#	275047
#	290394
#
# Disc length: 4019 seconds
#
# Revision: 0
# Processed by: cddbd v1.5.1PL0 Copyright (c) Steve Scherf et al.
# Submitted via: CDex 1.50
#
DISCID=1f0fb114
DTITLE=Раймонд Паулс - Rainy Blues
DYEAR=2003
DGENRE=Blues
TTITLE0=Introduction
TTITLE1=Theatre
TTITLE2=Antse's Romance
TTITLE3=A Melody
TTITLE4=A Melody
TTITLE5=A Couple
TTITLE6=A Melody
TTITLE7=Charlie
TTITLE8=Drops of pain
TTITLE9=Theme № 1
TTITLE10=Paint it Shades of red
TTITLE11=Depression
TTITLE12=Theme № 4
TTITLE13=Theme № 7
TTITLE14=Carrie's song
TTITLE15=Goose
TTITLE16=Bou-Bou
TTITLE17=Violonist
TTITLE18=Movie Theme
TTITLE19=Movie Theme
EXTD=YEAR: 2003
EXTT0=
EXTT1=
EXTT2=
EXTT3=
EXTT4=
EXTT5=
EXTT6=
EXTT7=
EXTT8=
EXTT9=
EXTT10=
EXTT11=
EXTT12=
EXTT13=
EXTT14=
EXTT15=
EXTT16=
EXTT17=
EXTT18=
EXTT19=
PLAYORDER=
